<mxfile host="app.diagrams.net" modified="2023-10-05T10:04:19.383Z" agent="Mozilla/5.0 (Windows NT 10.0; Win64; x64) AppleWebKit/537.36 (KHTML, like Gecko) Chrome/117.0.0.0 Safari/537.36" etag="EQ14C0hn8DpeMm3k20Eu" version="22.0.2" type="device">
  <diagram name="Page-1" id="2YBvvXClWsGukQMizWep">
    <mxGraphModel dx="1050" dy="542" grid="1" gridSize="10" guides="1" tooltips="1" connect="1" arrows="1" fold="1" page="1" pageScale="1" pageWidth="850" pageHeight="1100" math="0" shadow="0">
      <root>
        <mxCell id="0" />
        <mxCell id="1" parent="0" />
        <mxCell id="aM9ryv3xv72pqoxQDRHE-1" value="Drawing" style="shape=umlLifeline;perimeter=lifelinePerimeter;whiteSpace=wrap;html=1;container=0;dropTarget=0;collapsible=0;recursiveResize=0;outlineConnect=0;portConstraint=eastwest;newEdgeStyle={&quot;edgeStyle&quot;:&quot;elbowEdgeStyle&quot;,&quot;elbow&quot;:&quot;vertical&quot;,&quot;curved&quot;:0,&quot;rounded&quot;:0};" parent="1" vertex="1">
          <mxGeometry x="250" y="100" width="100" height="1110" as="geometry" />
        </mxCell>
        <mxCell id="aM9ryv3xv72pqoxQDRHE-5" value="Display" style="shape=umlLifeline;perimeter=lifelinePerimeter;whiteSpace=wrap;html=1;container=0;dropTarget=0;collapsible=0;recursiveResize=0;outlineConnect=0;portConstraint=eastwest;newEdgeStyle={&quot;edgeStyle&quot;:&quot;elbowEdgeStyle&quot;,&quot;elbow&quot;:&quot;vertical&quot;,&quot;curved&quot;:0,&quot;rounded&quot;:0};" parent="1" vertex="1">
          <mxGeometry x="440" y="160" width="100" height="1060" as="geometry" />
        </mxCell>
        <mxCell id="_8Uw5CFxiMQHdm2J3RAh-24" value="" style="shape=umlDestroy;whiteSpace=wrap;html=1;strokeWidth=3;targetShapes=umlLifeline;" parent="aM9ryv3xv72pqoxQDRHE-5" vertex="1">
          <mxGeometry x="35" y="1030" width="30" height="30" as="geometry" />
        </mxCell>
        <mxCell id="38EyoLRpENG-E7wULdpG-4" value="Main_Panel" style="shape=umlLifeline;perimeter=lifelinePerimeter;whiteSpace=wrap;html=1;container=0;dropTarget=0;collapsible=0;recursiveResize=0;outlineConnect=0;portConstraint=eastwest;newEdgeStyle={&quot;edgeStyle&quot;:&quot;elbowEdgeStyle&quot;,&quot;elbow&quot;:&quot;vertical&quot;,&quot;curved&quot;:0,&quot;rounded&quot;:0};" parent="1" vertex="1">
          <mxGeometry x="550" y="210" width="100" height="1000" as="geometry" />
        </mxCell>
        <mxCell id="38EyoLRpENG-E7wULdpG-5" value="Options_Panel" style="shape=umlLifeline;perimeter=lifelinePerimeter;whiteSpace=wrap;html=1;container=0;dropTarget=0;collapsible=0;recursiveResize=0;outlineConnect=0;portConstraint=eastwest;newEdgeStyle={&quot;edgeStyle&quot;:&quot;elbowEdgeStyle&quot;,&quot;elbow&quot;:&quot;vertical&quot;,&quot;curved&quot;:0,&quot;rounded&quot;:0};" parent="1" vertex="1">
          <mxGeometry x="660" y="270" width="100" height="930" as="geometry" />
        </mxCell>
        <mxCell id="38EyoLRpENG-E7wULdpG-6" value="Figure_Panel" style="shape=umlLifeline;perimeter=lifelinePerimeter;whiteSpace=wrap;html=1;container=0;dropTarget=0;collapsible=0;recursiveResize=0;outlineConnect=0;portConstraint=eastwest;newEdgeStyle={&quot;edgeStyle&quot;:&quot;elbowEdgeStyle&quot;,&quot;elbow&quot;:&quot;vertical&quot;,&quot;curved&quot;:0,&quot;rounded&quot;:0};" parent="1" vertex="1">
          <mxGeometry x="780" y="320" width="100" height="880" as="geometry" />
        </mxCell>
        <mxCell id="38EyoLRpENG-E7wULdpG-7" value="Canvas" style="shape=umlLifeline;perimeter=lifelinePerimeter;whiteSpace=wrap;html=1;container=0;dropTarget=0;collapsible=0;recursiveResize=0;outlineConnect=0;portConstraint=eastwest;newEdgeStyle={&quot;edgeStyle&quot;:&quot;elbowEdgeStyle&quot;,&quot;elbow&quot;:&quot;vertical&quot;,&quot;curved&quot;:0,&quot;rounded&quot;:0};" parent="1" vertex="1">
          <mxGeometry x="880" y="370" width="100" height="830" as="geometry" />
        </mxCell>
        <mxCell id="38EyoLRpENG-E7wULdpG-8" value="Figure" style="shape=umlLifeline;perimeter=lifelinePerimeter;whiteSpace=wrap;html=1;container=0;dropTarget=0;collapsible=0;recursiveResize=0;outlineConnect=0;portConstraint=eastwest;newEdgeStyle={&quot;edgeStyle&quot;:&quot;elbowEdgeStyle&quot;,&quot;elbow&quot;:&quot;vertical&quot;,&quot;curved&quot;:0,&quot;rounded&quot;:0};" parent="1" vertex="1">
          <mxGeometry x="1040" y="470" width="100" height="660" as="geometry" />
        </mxCell>
        <mxCell id="38EyoLRpENG-E7wULdpG-15" value="" style="shape=umlLifeline;perimeter=lifelinePerimeter;whiteSpace=wrap;html=1;container=1;dropTarget=0;collapsible=0;recursiveResize=0;outlineConnect=0;portConstraint=eastwest;newEdgeStyle={&quot;curved&quot;:0,&quot;rounded&quot;:0};participant=umlActor;" parent="1" vertex="1">
          <mxGeometry x="100" y="60" width="30" height="1160" as="geometry" />
        </mxCell>
        <mxCell id="_8Uw5CFxiMQHdm2J3RAh-26" value="" style="shape=umlDestroy;whiteSpace=wrap;html=1;strokeWidth=3;targetShapes=umlLifeline;" parent="38EyoLRpENG-E7wULdpG-15" vertex="1">
          <mxGeometry y="1130" width="30" height="30" as="geometry" />
        </mxCell>
        <mxCell id="38EyoLRpENG-E7wULdpG-16" value="Open Redactor" style="html=1;verticalAlign=bottom;endArrow=block;curved=0;rounded=0;" parent="1" edge="1">
          <mxGeometry width="80" relative="1" as="geometry">
            <mxPoint x="109.81034482758605" y="120" as="sourcePoint" />
            <mxPoint x="249.5" y="120" as="targetPoint" />
          </mxGeometry>
        </mxCell>
        <mxCell id="38EyoLRpENG-E7wULdpG-18" value="Create Displayl" style="html=1;verticalAlign=bottom;endArrow=block;curved=0;rounded=0;" parent="1" edge="1">
          <mxGeometry width="80" relative="1" as="geometry">
            <mxPoint x="300.00034482758605" y="180" as="sourcePoint" />
            <mxPoint x="439.69" y="180" as="targetPoint" />
          </mxGeometry>
        </mxCell>
        <mxCell id="38EyoLRpENG-E7wULdpG-19" value="Create Panel" style="html=1;verticalAlign=bottom;endArrow=block;curved=0;rounded=0;" parent="1" edge="1">
          <mxGeometry width="80" relative="1" as="geometry">
            <mxPoint x="300.00034482758605" y="229.47" as="sourcePoint" />
            <mxPoint x="549.69" y="229.47" as="targetPoint" />
          </mxGeometry>
        </mxCell>
        <mxCell id="38EyoLRpENG-E7wULdpG-20" value="Create Panel" style="html=1;verticalAlign=bottom;endArrow=block;curved=0;rounded=0;" parent="1" edge="1">
          <mxGeometry width="80" relative="1" as="geometry">
            <mxPoint x="300.31034482758605" y="290" as="sourcePoint" />
            <mxPoint x="660" y="290" as="targetPoint" />
          </mxGeometry>
        </mxCell>
        <mxCell id="38EyoLRpENG-E7wULdpG-21" value="Create Panel" style="html=1;verticalAlign=bottom;endArrow=block;curved=0;rounded=0;" parent="1" edge="1">
          <mxGeometry width="80" relative="1" as="geometry">
            <mxPoint x="300.31034482758605" y="340" as="sourcePoint" />
            <mxPoint x="780" y="340" as="targetPoint" />
          </mxGeometry>
        </mxCell>
        <mxCell id="38EyoLRpENG-E7wULdpG-22" value="create_Canvas()" style="html=1;verticalAlign=bottom;endArrow=block;curved=0;rounded=0;" parent="1" edge="1">
          <mxGeometry width="80" relative="1" as="geometry">
            <mxPoint x="490" y="380" as="sourcePoint" />
            <mxPoint x="880" y="380" as="targetPoint" />
          </mxGeometry>
        </mxCell>
        <mxCell id="38EyoLRpENG-E7wULdpG-23" value="choose_figure_to_place()" style="html=1;verticalAlign=bottom;endArrow=block;curved=0;rounded=0;" parent="1" edge="1">
          <mxGeometry width="80" relative="1" as="geometry">
            <mxPoint x="600" y="479.58000000000004" as="sourcePoint" />
            <mxPoint x="930" y="480" as="targetPoint" />
          </mxGeometry>
        </mxCell>
        <mxCell id="38EyoLRpENG-E7wULdpG-24" value="add_object()" style="html=1;verticalAlign=bottom;endArrow=block;curved=0;rounded=0;" parent="1" edge="1">
          <mxGeometry width="80" relative="1" as="geometry">
            <mxPoint x="930" y="490" as="sourcePoint" />
            <mxPoint x="1040" y="490" as="targetPoint" />
          </mxGeometry>
        </mxCell>
        <mxCell id="38EyoLRpENG-E7wULdpG-26" value="Save file" style="html=1;verticalAlign=bottom;endArrow=block;curved=0;rounded=0;entryX=0;entryY=0;entryDx=0;entryDy=0;" parent="1" target="RvpZYAZhaGrn7Gk52c-N-2" edge="1">
          <mxGeometry width="80" relative="1" as="geometry">
            <mxPoint x="107.5" y="1150" as="sourcePoint" />
            <mxPoint x="597" y="1150" as="targetPoint" />
          </mxGeometry>
        </mxCell>
        <mxCell id="38EyoLRpENG-E7wULdpG-27" value="save()" style="html=1;verticalAlign=bottom;endArrow=block;curved=0;rounded=0;entryX=0;entryY=0;entryDx=0;entryDy=0;" parent="1" target="RvpZYAZhaGrn7Gk52c-N-5" edge="1">
          <mxGeometry width="80" relative="1" as="geometry">
            <mxPoint x="597.5" y="1170" as="sourcePoint" />
            <mxPoint x="926.9999999999995" y="1170" as="targetPoint" />
          </mxGeometry>
        </mxCell>
        <mxCell id="38EyoLRpENG-E7wULdpG-31" value="render_Canvas()" style="html=1;verticalAlign=bottom;endArrow=block;curved=0;rounded=0;" parent="1" edge="1">
          <mxGeometry x="0.5512" y="-20" width="80" relative="1" as="geometry">
            <mxPoint x="937.69" y="1050" as="sourcePoint" />
            <mxPoint x="937.5003448275861" y="1090" as="targetPoint" />
            <Array as="points">
              <mxPoint x="1007.69" y="1050" />
              <mxPoint x="1007.69" y="1090" />
            </Array>
            <mxPoint as="offset" />
          </mxGeometry>
        </mxCell>
        <mxCell id="38EyoLRpENG-E7wULdpG-33" value="delete_object()" style="html=1;verticalAlign=bottom;endArrow=block;curved=0;rounded=0;entryX=0.526;entryY=0.499;entryDx=0;entryDy=0;entryPerimeter=0;" parent="1" edge="1">
          <mxGeometry width="80" relative="1" as="geometry">
            <mxPoint x="930" y="1120" as="sourcePoint" />
            <mxPoint x="1091.2800000000002" y="1120" as="targetPoint" />
          </mxGeometry>
        </mxCell>
        <mxCell id="38EyoLRpENG-E7wULdpG-34" value="delete()" style="html=1;verticalAlign=bottom;endArrow=block;curved=0;rounded=0;entryX=0.5;entryY=0.88;entryDx=0;entryDy=0;entryPerimeter=0;" parent="1" target="38EyoLRpENG-E7wULdpG-7" edge="1">
          <mxGeometry width="80" relative="1" as="geometry">
            <mxPoint x="827.5" y="1100" as="sourcePoint" />
            <mxPoint x="926.9999999999995" y="1100" as="targetPoint" />
          </mxGeometry>
        </mxCell>
        <mxCell id="38EyoLRpENG-E7wULdpG-35" value="get_object()" style="html=1;verticalAlign=bottom;endArrow=block;curved=0;rounded=0;entryX=1.079;entryY=0.099;entryDx=0;entryDy=0;entryPerimeter=0;" parent="1" source="38EyoLRpENG-E7wULdpG-7" target="RvpZYAZhaGrn7Gk52c-N-4" edge="1">
          <mxGeometry width="80" relative="1" as="geometry">
            <mxPoint x="926.9999999999995" y="819.5799999999998" as="sourcePoint" />
            <mxPoint x="826.8235294117644" y="819.5799999999998" as="targetPoint" />
          </mxGeometry>
        </mxCell>
        <mxCell id="_8Uw5CFxiMQHdm2J3RAh-14" value="set_Size()" style="html=1;verticalAlign=bottom;endArrow=block;curved=0;rounded=0;entryX=0;entryY=0;entryDx=0;entryDy=0;" parent="1" target="_8Uw5CFxiMQHdm2J3RAh-27" edge="1">
          <mxGeometry width="80" relative="1" as="geometry">
            <mxPoint x="930" y="890" as="sourcePoint" />
            <mxPoint x="1027.5" y="890" as="targetPoint" />
          </mxGeometry>
        </mxCell>
        <mxCell id="_8Uw5CFxiMQHdm2J3RAh-15" value="set_Rotation()" style="html=1;verticalAlign=bottom;endArrow=block;curved=0;rounded=0;entryX=0;entryY=0;entryDx=0;entryDy=0;" parent="1" edge="1">
          <mxGeometry width="80" relative="1" as="geometry">
            <mxPoint x="930" y="930" as="sourcePoint" />
            <mxPoint x="1077.5" y="930" as="targetPoint" />
          </mxGeometry>
        </mxCell>
        <mxCell id="_8Uw5CFxiMQHdm2J3RAh-16" value="fill()" style="html=1;verticalAlign=bottom;endArrow=block;curved=0;rounded=0;entryX=0;entryY=0;entryDx=0;entryDy=0;" parent="1" edge="1">
          <mxGeometry width="80" relative="1" as="geometry">
            <mxPoint x="930" y="960" as="sourcePoint" />
            <mxPoint x="1077.5" y="960" as="targetPoint" />
          </mxGeometry>
        </mxCell>
        <mxCell id="_8Uw5CFxiMQHdm2J3RAh-17" value="set_fill_color()" style="html=1;verticalAlign=bottom;endArrow=block;curved=0;rounded=0;entryX=0;entryY=0;entryDx=0;entryDy=0;" parent="1" edge="1">
          <mxGeometry width="80" relative="1" as="geometry">
            <mxPoint x="930" y="990" as="sourcePoint" />
            <mxPoint x="1077.5" y="990" as="targetPoint" />
          </mxGeometry>
        </mxCell>
        <mxCell id="_8Uw5CFxiMQHdm2J3RAh-18" value="set_line_color()" style="html=1;verticalAlign=bottom;endArrow=block;curved=0;rounded=0;entryX=0;entryY=0;entryDx=0;entryDy=0;" parent="1" edge="1">
          <mxGeometry width="80" relative="1" as="geometry">
            <mxPoint x="930" y="1020" as="sourcePoint" />
            <mxPoint x="1077.5" y="1020" as="targetPoint" />
          </mxGeometry>
        </mxCell>
        <mxCell id="_8Uw5CFxiMQHdm2J3RAh-19" value="set_position()" style="html=1;verticalAlign=bottom;endArrow=block;curved=0;rounded=0;entryX=0;entryY=0;entryDx=0;entryDy=0;" parent="1" edge="1">
          <mxGeometry width="80" relative="1" as="geometry">
            <mxPoint x="930" y="1040" as="sourcePoint" />
            <mxPoint x="1077.5" y="1040" as="targetPoint" />
          </mxGeometry>
        </mxCell>
        <mxCell id="_8Uw5CFxiMQHdm2J3RAh-20" value="" style="shape=umlDestroy;whiteSpace=wrap;html=1;strokeWidth=3;targetShapes=umlLifeline;" parent="1" vertex="1">
          <mxGeometry x="917.5" y="1190" width="30" height="30" as="geometry" />
        </mxCell>
        <mxCell id="_8Uw5CFxiMQHdm2J3RAh-21" value="" style="shape=umlDestroy;whiteSpace=wrap;html=1;strokeWidth=3;targetShapes=umlLifeline;" parent="1" vertex="1">
          <mxGeometry x="815" y="1190" width="30" height="30" as="geometry" />
        </mxCell>
        <mxCell id="_8Uw5CFxiMQHdm2J3RAh-22" value="" style="shape=umlDestroy;whiteSpace=wrap;html=1;strokeWidth=3;targetShapes=umlLifeline;" parent="1" vertex="1">
          <mxGeometry x="695" y="1190" width="30" height="30" as="geometry" />
        </mxCell>
        <mxCell id="_8Uw5CFxiMQHdm2J3RAh-23" value="" style="shape=umlDestroy;whiteSpace=wrap;html=1;strokeWidth=3;targetShapes=umlLifeline;" parent="1" vertex="1">
          <mxGeometry x="585" y="1190" width="30" height="30" as="geometry" />
        </mxCell>
        <mxCell id="_8Uw5CFxiMQHdm2J3RAh-25" value="" style="shape=umlDestroy;whiteSpace=wrap;html=1;strokeWidth=3;targetShapes=umlLifeline;" parent="1" vertex="1">
          <mxGeometry x="285" y="1190" width="30" height="30" as="geometry" />
        </mxCell>
        <mxCell id="_8Uw5CFxiMQHdm2J3RAh-27" value="" style="rounded=0;whiteSpace=wrap;html=1;" parent="1" vertex="1">
          <mxGeometry x="1077.5" y="890" width="20" height="150" as="geometry" />
        </mxCell>
        <mxCell id="_8Uw5CFxiMQHdm2J3RAh-34" value="" style="rounded=0;whiteSpace=wrap;html=1;" parent="1" vertex="1">
          <mxGeometry x="290" y="140" width="20" height="1010" as="geometry" />
        </mxCell>
        <mxCell id="38EyoLRpENG-E7wULdpG-32" value="Delete figure" style="html=1;verticalAlign=bottom;endArrow=block;curved=0;rounded=0;entryX=0.04;entryY=0.871;entryDx=0;entryDy=0;entryPerimeter=0;" parent="1" target="RvpZYAZhaGrn7Gk52c-N-4" edge="1">
          <mxGeometry width="80" relative="1" as="geometry">
            <mxPoint x="107.5" y="1060" as="sourcePoint" />
            <mxPoint x="807.5" y="1060" as="targetPoint" />
          </mxGeometry>
        </mxCell>
        <mxCell id="38EyoLRpENG-E7wULdpG-36" value="&amp;nbsp;Choose figure to change" style="html=1;verticalAlign=bottom;endArrow=block;curved=0;rounded=0;entryX=0;entryY=0;entryDx=0;entryDy=0;" parent="1" target="RvpZYAZhaGrn7Gk52c-N-4" edge="1">
          <mxGeometry width="80" relative="1" as="geometry">
            <mxPoint x="107.5" y="790" as="sourcePoint" />
            <mxPoint x="827" y="790" as="targetPoint" />
          </mxGeometry>
        </mxCell>
        <mxCell id="38EyoLRpENG-E7wULdpG-25" value="Choose figure and place it" style="html=1;verticalAlign=bottom;endArrow=block;curved=0;rounded=0;entryX=0.003;entryY=0.124;entryDx=0;entryDy=0;entryPerimeter=0;" parent="1" target="RvpZYAZhaGrn7Gk52c-N-1" edge="1">
          <mxGeometry width="80" relative="1" as="geometry">
            <mxPoint x="110" y="454.50000000000006" as="sourcePoint" />
            <mxPoint x="599.5" y="454.5" as="targetPoint" />
          </mxGeometry>
        </mxCell>
        <mxCell id="RvpZYAZhaGrn7Gk52c-N-1" value="" style="rounded=0;whiteSpace=wrap;html=1;" parent="1" vertex="1">
          <mxGeometry x="590" y="450" width="20" height="30" as="geometry" />
        </mxCell>
        <mxCell id="RvpZYAZhaGrn7Gk52c-N-2" value="" style="rounded=0;whiteSpace=wrap;html=1;" parent="1" vertex="1">
          <mxGeometry x="582.5" y="1150" width="20" height="20" as="geometry" />
        </mxCell>
        <mxCell id="RvpZYAZhaGrn7Gk52c-N-3" value="" style="rounded=0;whiteSpace=wrap;html=1;" parent="1" vertex="1">
          <mxGeometry x="480" y="380" width="20" height="20" as="geometry" />
        </mxCell>
        <mxCell id="RvpZYAZhaGrn7Gk52c-N-4" value="" style="rounded=0;whiteSpace=wrap;html=1;" parent="1" vertex="1">
          <mxGeometry x="817.5" y="790" width="20" height="310" as="geometry" />
        </mxCell>
        <mxCell id="_8Uw5CFxiMQHdm2J3RAh-7" value="change_Size()" style="html=1;verticalAlign=bottom;endArrow=block;curved=0;rounded=0;" parent="1" target="38EyoLRpENG-E7wULdpG-7" edge="1">
          <mxGeometry width="80" relative="1" as="geometry">
            <mxPoint x="837.5" y="880" as="sourcePoint" />
            <mxPoint x="927.5" y="880" as="targetPoint" />
          </mxGeometry>
        </mxCell>
        <mxCell id="_8Uw5CFxiMQHdm2J3RAh-9" value="change_Rotation()" style="html=1;verticalAlign=bottom;endArrow=block;curved=0;rounded=0;" parent="1" target="38EyoLRpENG-E7wULdpG-7" edge="1">
          <mxGeometry width="80" relative="1" as="geometry">
            <mxPoint x="837.5" y="910" as="sourcePoint" />
            <mxPoint x="927.5" y="910" as="targetPoint" />
          </mxGeometry>
        </mxCell>
        <mxCell id="_8Uw5CFxiMQHdm2J3RAh-10" value="fill()" style="html=1;verticalAlign=bottom;endArrow=block;curved=0;rounded=0;" parent="1" target="38EyoLRpENG-E7wULdpG-7" edge="1">
          <mxGeometry width="80" relative="1" as="geometry">
            <mxPoint x="837.5" y="940" as="sourcePoint" />
            <mxPoint x="927.5" y="940" as="targetPoint" />
          </mxGeometry>
        </mxCell>
        <mxCell id="_8Uw5CFxiMQHdm2J3RAh-11" value="change_fill_color()" style="html=1;verticalAlign=bottom;endArrow=block;curved=0;rounded=0;entryX=0.5;entryY=0.723;entryDx=0;entryDy=0;entryPerimeter=0;" parent="1" target="38EyoLRpENG-E7wULdpG-7" edge="1">
          <mxGeometry width="80" relative="1" as="geometry">
            <mxPoint x="837.5" y="970" as="sourcePoint" />
            <mxPoint x="927.5" y="970" as="targetPoint" />
          </mxGeometry>
        </mxCell>
        <mxCell id="_8Uw5CFxiMQHdm2J3RAh-12" value="change_line_color()" style="html=1;verticalAlign=bottom;endArrow=block;curved=0;rounded=0;" parent="1" target="38EyoLRpENG-E7wULdpG-7" edge="1">
          <mxGeometry width="80" relative="1" as="geometry">
            <mxPoint x="837.5" y="1000" as="sourcePoint" />
            <mxPoint x="927.5" y="1000" as="targetPoint" />
          </mxGeometry>
        </mxCell>
        <mxCell id="_8Uw5CFxiMQHdm2J3RAh-13" value="change_position()" style="html=1;verticalAlign=bottom;endArrow=block;curved=0;rounded=0;" parent="1" edge="1">
          <mxGeometry width="80" relative="1" as="geometry">
            <mxPoint x="837.5" y="1030" as="sourcePoint" />
            <mxPoint x="928" y="1030" as="targetPoint" />
          </mxGeometry>
        </mxCell>
        <mxCell id="RvpZYAZhaGrn7Gk52c-N-5" value="" style="rounded=0;whiteSpace=wrap;html=1;" parent="1" vertex="1">
          <mxGeometry x="917.5" y="1170" width="20" height="20" as="geometry" />
        </mxCell>
        <mxCell id="RvpZYAZhaGrn7Gk52c-N-6" value="" style="rounded=0;whiteSpace=wrap;html=1;" parent="1" vertex="1">
          <mxGeometry x="917.5" y="1050" width="20" height="40" as="geometry" />
        </mxCell>
        <mxCell id="RvpZYAZhaGrn7Gk52c-N-7" value="render_Canvas()" style="html=1;verticalAlign=bottom;endArrow=block;curved=0;rounded=0;" parent="1" edge="1">
          <mxGeometry x="0.5512" y="-20" width="80" relative="1" as="geometry">
            <mxPoint x="937.69" y="750" as="sourcePoint" />
            <mxPoint x="937.5003448275861" y="790" as="targetPoint" />
            <Array as="points">
              <mxPoint x="1007.69" y="750" />
              <mxPoint x="1007.69" y="790" />
            </Array>
            <mxPoint as="offset" />
          </mxGeometry>
        </mxCell>
        <mxCell id="RvpZYAZhaGrn7Gk52c-N-8" value="" style="rounded=0;whiteSpace=wrap;html=1;" parent="1" vertex="1">
          <mxGeometry x="917.5" y="750" width="20" height="40" as="geometry" />
        </mxCell>
        <mxCell id="RvpZYAZhaGrn7Gk52c-N-11" value="change_resolution()" style="html=1;verticalAlign=bottom;endArrow=block;curved=0;rounded=0;entryX=0;entryY=0;entryDx=0;entryDy=0;exitX=0.517;exitY=-0.067;exitDx=0;exitDy=0;exitPerimeter=0;" parent="1" source="RvpZYAZhaGrn7Gk52c-N-20" target="RvpZYAZhaGrn7Gk52c-N-14" edge="1">
          <mxGeometry width="80" relative="1" as="geometry">
            <mxPoint x="730" y="520" as="sourcePoint" />
            <mxPoint x="800" y="520" as="targetPoint" />
          </mxGeometry>
        </mxCell>
        <mxCell id="_8Uw5CFxiMQHdm2J3RAh-33" value="" style="rounded=0;whiteSpace=wrap;html=1;" parent="1" vertex="1">
          <mxGeometry x="105" y="120" width="20" height="1030" as="geometry" />
        </mxCell>
        <mxCell id="RvpZYAZhaGrn7Gk52c-N-13" value="set_resolution()" style="html=1;verticalAlign=bottom;endArrow=block;curved=0;rounded=0;" parent="1" edge="1">
          <mxGeometry x="0.5512" y="-20" width="80" relative="1" as="geometry">
            <mxPoint x="942.69" y="520" as="sourcePoint" />
            <mxPoint x="942.5003448275861" y="560" as="targetPoint" />
            <Array as="points">
              <mxPoint x="1012.69" y="520" />
              <mxPoint x="1012.69" y="560" />
            </Array>
            <mxPoint as="offset" />
          </mxGeometry>
        </mxCell>
        <mxCell id="RvpZYAZhaGrn7Gk52c-N-14" value="" style="rounded=0;whiteSpace=wrap;html=1;" parent="1" vertex="1">
          <mxGeometry x="922.5" y="520" width="20" height="40" as="geometry" />
        </mxCell>
        <mxCell id="RvpZYAZhaGrn7Gk52c-N-15" value="change_graphlib()" style="html=1;verticalAlign=bottom;endArrow=block;curved=0;rounded=0;entryX=0;entryY=0;entryDx=0;entryDy=0;" parent="1" target="RvpZYAZhaGrn7Gk52c-N-18" edge="1">
          <mxGeometry width="80" relative="1" as="geometry">
            <mxPoint x="710" y="620" as="sourcePoint" />
            <mxPoint x="930" y="620" as="targetPoint" />
          </mxGeometry>
        </mxCell>
        <mxCell id="RvpZYAZhaGrn7Gk52c-N-18" value="" style="rounded=0;whiteSpace=wrap;html=1;" parent="1" vertex="1">
          <mxGeometry x="920" y="620" width="20" height="40" as="geometry" />
        </mxCell>
        <mxCell id="RvpZYAZhaGrn7Gk52c-N-19" value="" style="rounded=0;whiteSpace=wrap;html=1;" parent="1" vertex="1">
          <mxGeometry x="700" y="620" width="20" height="15" as="geometry" />
        </mxCell>
        <mxCell id="RvpZYAZhaGrn7Gk52c-N-20" value="" style="rounded=0;whiteSpace=wrap;html=1;" parent="1" vertex="1">
          <mxGeometry x="700" y="520" width="20" height="15" as="geometry" />
        </mxCell>
        <mxCell id="RvpZYAZhaGrn7Gk52c-N-17" value="set_graph_lib_type()" style="html=1;verticalAlign=bottom;endArrow=block;curved=0;rounded=0;" parent="1" edge="1">
          <mxGeometry x="0.5512" y="-20" width="80" relative="1" as="geometry">
            <mxPoint x="937.69" y="620" as="sourcePoint" />
            <mxPoint x="937.5003448275861" y="660" as="targetPoint" />
            <Array as="points">
              <mxPoint x="1007.69" y="620" />
              <mxPoint x="1007.69" y="660" />
            </Array>
            <mxPoint as="offset" />
          </mxGeometry>
        </mxCell>
        <mxCell id="RvpZYAZhaGrn7Gk52c-N-23" value="choose_Canvas()" style="html=1;verticalAlign=bottom;endArrow=block;curved=0;rounded=0;" parent="1" target="38EyoLRpENG-E7wULdpG-7" edge="1">
          <mxGeometry width="80" relative="1" as="geometry">
            <mxPoint x="490" y="430" as="sourcePoint" />
            <mxPoint x="880" y="430" as="targetPoint" />
          </mxGeometry>
        </mxCell>
        <mxCell id="RvpZYAZhaGrn7Gk52c-N-24" value="" style="rounded=0;whiteSpace=wrap;html=1;" parent="1" vertex="1">
          <mxGeometry x="480" y="430" width="20" height="20" as="geometry" />
        </mxCell>
        <mxCell id="38EyoLRpENG-E7wULdpG-37" value="" style="shape=umlDestroy;whiteSpace=wrap;html=1;strokeWidth=3;targetShapes=umlLifeline;" parent="1" vertex="1">
          <mxGeometry x="1075" y="1120" width="30" height="30" as="geometry" />
        </mxCell>
        <mxCell id="RvpZYAZhaGrn7Gk52c-N-26" value="Frame" style="shape=umlLifeline;perimeter=lifelinePerimeter;whiteSpace=wrap;html=1;container=1;dropTarget=0;collapsible=0;recursiveResize=0;outlineConnect=0;portConstraint=eastwest;newEdgeStyle={&quot;curved&quot;:0,&quot;rounded&quot;:0};" parent="1" vertex="1">
          <mxGeometry x="1160" y="560" width="100" height="300" as="geometry" />
        </mxCell>
        <mxCell id="RvpZYAZhaGrn7Gk52c-N-27" value="frame_show()" style="html=1;verticalAlign=bottom;endArrow=block;curved=0;rounded=0;" parent="1" source="38EyoLRpENG-E7wULdpG-8" edge="1">
          <mxGeometry width="80" relative="1" as="geometry">
            <mxPoint x="1050" y="580" as="sourcePoint" />
            <mxPoint x="1160" y="580" as="targetPoint" />
          </mxGeometry>
        </mxCell>
        <mxCell id="RvpZYAZhaGrn7Gk52c-N-28" value="frame_hide()" style="html=1;verticalAlign=bottom;endArrow=block;curved=0;rounded=0;" parent="1" target="RvpZYAZhaGrn7Gk52c-N-26" edge="1">
          <mxGeometry width="80" relative="1" as="geometry">
            <mxPoint x="1090" y="830" as="sourcePoint" />
            <mxPoint x="1160" y="830" as="targetPoint" />
          </mxGeometry>
        </mxCell>
        <mxCell id="RvpZYAZhaGrn7Gk52c-N-29" value="" style="shape=umlDestroy;whiteSpace=wrap;html=1;strokeWidth=3;targetShapes=umlLifeline;" parent="1" vertex="1">
          <mxGeometry x="1195" y="850" width="30" height="30" as="geometry" />
        </mxCell>
        <mxCell id="RvpZYAZhaGrn7Gk52c-N-30" value="" style="rounded=0;whiteSpace=wrap;html=1;" parent="1" vertex="1">
          <mxGeometry x="1080" y="580" width="20" height="20" as="geometry" />
        </mxCell>
        <mxCell id="RvpZYAZhaGrn7Gk52c-N-31" value="" style="rounded=0;whiteSpace=wrap;html=1;" parent="1" vertex="1">
          <mxGeometry x="1080" y="830" width="20" height="20" as="geometry" />
        </mxCell>
        <mxCell id="RvpZYAZhaGrn7Gk52c-N-34" value="set_size()" style="html=1;verticalAlign=bottom;endArrow=block;curved=0;rounded=0;entryX=1;entryY=1;entryDx=0;entryDy=0;" parent="1" target="RvpZYAZhaGrn7Gk52c-N-35" edge="1">
          <mxGeometry x="0.5512" y="-20" width="80" relative="1" as="geometry">
            <mxPoint x="1210.19" y="620" as="sourcePoint" />
            <mxPoint x="1210.000344827586" y="660" as="targetPoint" />
            <Array as="points">
              <mxPoint x="1280.19" y="620" />
              <mxPoint x="1280.19" y="660" />
            </Array>
            <mxPoint as="offset" />
          </mxGeometry>
        </mxCell>
        <mxCell id="RvpZYAZhaGrn7Gk52c-N-35" value="" style="rounded=0;whiteSpace=wrap;html=1;" parent="1" vertex="1">
          <mxGeometry x="1200" y="620" width="20" height="40" as="geometry" />
        </mxCell>
        <mxCell id="RvpZYAZhaGrn7Gk52c-N-36" value="set_position()" style="html=1;verticalAlign=bottom;endArrow=block;curved=0;rounded=0;entryX=1;entryY=1;entryDx=0;entryDy=0;" parent="1" target="RvpZYAZhaGrn7Gk52c-N-37" edge="1">
          <mxGeometry x="0.5512" y="-20" width="80" relative="1" as="geometry">
            <mxPoint x="1210.19" y="700" as="sourcePoint" />
            <mxPoint x="1210.000344827586" y="740" as="targetPoint" />
            <Array as="points">
              <mxPoint x="1280.19" y="700" />
              <mxPoint x="1280.19" y="740" />
            </Array>
            <mxPoint as="offset" />
          </mxGeometry>
        </mxCell>
        <mxCell id="RvpZYAZhaGrn7Gk52c-N-37" value="" style="rounded=0;whiteSpace=wrap;html=1;" parent="1" vertex="1">
          <mxGeometry x="1200" y="700" width="20" height="40" as="geometry" />
        </mxCell>
      </root>
    </mxGraphModel>
  </diagram>
</mxfile>
